<svg width="24" height="24" viewBox="0 0 24 24" fill="none" xmlns="http://www.w3.org/2000/svg">
<path d="M15 14L12 17L9 14H11V10H13V14H15Z" fill="#757575"/>
<path fill-rule="evenodd" clip-rule="evenodd" d="M3 6.62132V7V18.5C3 19.8807 4.11929 21 5.5 21H18.5C19.8807 21 21 19.8807 21 18.5V7V6.62132C21 5.95828 20.7366 5.3224 20.2678 4.85355L19.1464 3.73223C18.6776 3.26339 18.0417 3 17.3787 3H6.62132C5.95828 3 5.3224 3.26339 4.85355 3.73223L3.73223 4.85355C3.26339 5.32239 3 5.95828 3 6.62132ZM6.26777 5.14645C6.36154 5.05268 6.48871 5 6.62132 5H17.3787C17.5113 5 17.6385 5.05268 17.7322 5.14645L18.5858 6H5.41421L6.26777 5.14645ZM5 8H19V18.5C19 18.7761 18.7761 19 18.5 19H5.5C5.22386 19 5 18.7761 5 18.5V8Z" fill="#757575"/>
</svg>
