<svg width="24" height="24" viewBox="0 0 24 24" fill="none" xmlns="http://www.w3.org/2000/svg">
    <path d="M13 13.5013H14.5403C14.9502 13.5013 15.1507 14.0021 14.8683 14.2896L12.3266 16.8678C12.1444 17.0441 11.8619 17.0441 11.6797 16.8678L9.13805 14.2896C8.84653 14.0021 9.04695 13.5013 9.4569 13.5013H11V10.9274C11 10.4173 11.4975 10 11.9986 10C12.4996 10 13 10.4173 13 10.9274V13.5013Z"
          fill="#757575"/>
    <path fill-rule="evenodd" clip-rule="evenodd"
          d="M3.73223 4.85355C3.26339 5.32239 3 5.95828 3 6.62132V18.5C3 19.8807 4.11929 21 5.5 21H18.5C19.8807 21 21 19.8807 21 18.5V6.62132C21 5.95828 20.7366 5.3224 20.2678 4.85355L19.1464 3.73223C18.6776 3.26339 18.0417 3 17.3787 3H6.62132C5.95828 3 5.3224 3.26339 4.85355 3.73223L3.73223 4.85355ZM6.26777 5.14645C6.36154 5.05268 6.48871 5 6.62132 5H17.3787C17.5113 5 17.6385 5.05268 17.7322 5.14645L18.5858 6H5.41421L6.26777 5.14645ZM5 8H19V18.5C19 18.7761 18.7761 19 18.5 19H5.5C5.22386 19 5 18.7761 5 18.5V8Z"
          fill="#757575"/>
</svg>
