<svg width="24" height="24" viewBox="0 0 24 24" fill="none" xmlns="http://www.w3.org/2000/svg">
    <path d="M8 13C8 12.4477 8.44772 12 9 12H15C15.5523 12 16 12.4477 16 13C16 13.5523 15.5523 14 15 14H9C8.44772 14 8 13.5523 8 13Z"
          fill="#757575"/>
    <path d="M9 16C8.44772 16 8 16.4477 8 17C8 17.5523 8.44772 18 9 18H15C15.5523 18 16 17.5523 16 17C16 16.4477 15.5523 16 15 16H9Z"
          fill="#757575"/>
    <path fill-rule="evenodd" clip-rule="evenodd"
          d="M4 4.5C4 3.11929 5.11929 2 6.5 2H14C14.2652 2 14.5196 2.10536 14.7071 2.29289L19.7071 7.29289C19.8946 7.48043 20 7.73478 20 8V19.5C20 20.8807 18.8807 22 17.5 22H6.5C5.11929 22 4 20.8807 4 19.5V4.5ZM6.5 4C6.22386 4 6 4.22386 6 4.5V19.5C6 19.7761 6.22386 20 6.5 20H17.5C17.7761 20 18 19.7761 18 19.5V9H15.5C14.1193 9 13 7.88071 13 6.5V4H6.5ZM15 5.41421L16.5858 7H15.5C15.2239 7 15 6.77614 15 6.5V5.41421Z"
          fill="#757575"/>
</svg>
