<svg width="24" height="24" viewBox="0 0 24 24" fill="none" xmlns="http://www.w3.org/2000/svg">
<path fill-rule="evenodd" clip-rule="evenodd" d="M3 17.5V20C3 20.5523 3.44772 21 4 21H6.5C6.76522 21 7.01957 20.8946 7.20711 20.7071L17.2071 10.7071C17.5976 10.3166 17.5976 9.68342 17.2071 9.29289L14.7071 6.79289C14.3166 6.40237 13.6834 6.40237 13.2929 6.79289L3.29289 16.7929C3.10536 16.9804 3 17.2348 3 17.5ZM5 19V17.9142L14 8.91421L15.0858 10L6.08579 19H5Z" fill="#757575"/>
<path d="M17.66 3C17.41 3 17.15 3.1 16.96 3.29L15.13 5.12L18.88 8.87L20.71 7.04C21.1 6.65 21.1 6.02 20.71 5.63L18.37 3.29C18.17 3.09 17.92 3 17.66 3Z" fill="#757575"/>
</svg>
