<svg width="24" height="24" viewBox="0 0 24 24" fill="none" xmlns="http://www.w3.org/2000/svg">
    <path d="M16.96 3.29C17.15 3.1 17.41 3 17.66 3C17.92 3 18.17 3.09 18.37 3.29L20.71 5.63C21.1 6.02 21.1 6.65 20.71 7.04L18.88 8.87L15.13 5.12L16.96 3.29Z"
          fill="#757575"/>
    <path fill-rule="evenodd" clip-rule="evenodd"
          d="M3 20V17.5C3 17.2348 3.10536 16.9804 3.29289 16.7929L13.2929 6.79289C13.6834 6.40237 14.3166 6.40237 14.7071 6.79289L17.2071 9.29289C17.5976 9.68342 17.5976 10.3166 17.2071 10.7071L7.20711 20.7071C7.01957 20.8946 6.76522 21 6.5 21H4C3.44772 21 3 20.5523 3 20ZM5 17.9142V19H6.08579L15.0858 10L14 8.91421L5 17.9142Z"
          fill="#757575"/>
</svg>
