<svg width="24" height="24" viewBox="0 0 24 24" fill="none" xmlns="http://www.w3.org/2000/svg">
    <path d="M20 18C21.1 18 22 17.1 22 16V4C22 2.9 21.1 2 20 2L20 18Z" fill="black"/>
    <path d="M20 2H4.00002C2.90002 2 2.01002 2.9 2.01002 4L2.01001 19.585C2.01001 20.1373 2.44773 20.585 3.00001 20.585C3.31331 20.585 3.59882 20.4433 3.78218 20.2178L6.00002 18H20V16H4.00002V4H20V2Z"
          fill="black"/>
    <path fill-rule="evenodd" clip-rule="evenodd"
          d="M12 11C12.5523 11 13 10.5523 13 10V7C13 6.44772 12.5523 6 12 6C11.4477 6 11 6.44772 11 7V10C11 10.5523 11.4477 11 12 11Z"
          fill="black"/>
    <path fill-rule="evenodd" clip-rule="evenodd"
          d="M11 13C11 13.5523 11.4477 14 12 14C12.5523 14 13 13.5523 13 13C13 12.4477 12.5523 12 12 12C11.4477 12 11 12.4477 11 13Z"
          fill="black"/>
</svg>
