<svg width="24" height="24" viewBox="0 0 24 24" fill="none" xmlns="http://www.w3.org/2000/svg">
    <path fill-rule="evenodd" clip-rule="evenodd"
          d="M4.73307 7.03616C4.81727 7.01284 4.90248 7.001 4.98683 6.99988H5.01324C5.35321 7.00438 5.67588 7.1827 5.85749 7.48538L8 11.0562L10.1425 7.48538C10.3241 7.1827 10.6468 7.00438 10.9868 6.99988H11.0132C11.0975 7.001 11.1827 7.01284 11.2669 7.03616C11.7001 7.15614 12 7.5504 12 7.99988V15.9999C12 16.5522 11.5523 16.9999 11 16.9999C10.4477 16.9999 10 16.5522 10 15.9999V11.6102L8.85749 13.5144C8.67677 13.8156 8.35126 13.9999 8 13.9999C7.64874 13.9999 7.32323 13.8156 7.14251 13.5144L6 11.6102V15.9999C6 16.5522 5.55228 16.9999 5 16.9999C4.44772 16.9999 4 16.5522 4 15.9999V7.99988C4 7.5504 4.29989 7.15614 4.73307 7.03616ZM18 13.5013H19.5403C19.9502 13.5013 20.1507 14.0021 19.8683 14.2896L17.3266 16.8678C17.1444 17.0441 16.8619 17.0441 16.6797 16.8678L14.138 14.2896C13.8465 14.0021 14.0469 13.5013 14.4569 13.5013H16V7.92743C16 7.41734 16.4975 7 16.9986 7C17.4996 7 18 7.41734 18 7.92743V13.5013Z"
          fill="#757575"/>
</svg>
