<svg width="24" height="24" viewBox="0 0 24 24" fill="none" xmlns="http://www.w3.org/2000/svg">
    <path d="M9.99931 17H10.0007C10.2564 16.9998 10.512 16.9022 10.7071 16.7071L12 15.4142L13.2929 16.7071C13.488 16.9022 13.7436 16.9998 13.9993 17H14.0007C14.2564 16.9998 14.512 16.9022 14.7071 16.7071C15.0976 16.3166 15.0976 15.6834 14.7071 15.2929L13.4142 14L14.7071 12.7071C15.0976 12.3166 15.0976 11.6834 14.7071 11.2929C14.3166 10.9024 13.6834 10.9024 13.2929 11.2929L12 12.5858L10.7071 11.2929C10.3166 10.9024 9.68342 10.9024 9.29289 11.2929C8.90237 11.6834 8.90237 12.3166 9.29289 12.7071L10.5858 14L9.29289 15.2929C8.90237 15.6834 8.90237 16.3166 9.29289 16.7071C9.48798 16.9022 9.74362 16.9998 9.99931 17Z"
          fill="#757575"/>
    <path d="M21 7H15C14.4477 7 14 7.44772 14 8C14 8.55228 14.4477 9 15 9H17V16C17 16.5523 17.4477 17 18 17C18.5523 17 19 16.5523 19 16V9H21C21.5523 9 22 8.55228 22 8C22 7.44772 21.5523 7 21 7Z"
          fill="#757575"/>
    <path d="M9 7H3C2.44772 7 2 7.44772 2 8C2 8.55228 2.44772 9 3 9H5V16C5 16.5523 5.44772 17 6 17C6.55228 17 7 16.5523 7 16V9H9C9.55228 9 10 8.55228 10 8C10 7.44772 9.55228 7 9 7Z"
          fill="#757575"/>
</svg>
