<svg width="24" height="24" viewBox="0 0 24 24" fill="none" xmlns="http://www.w3.org/2000/svg">
<path d="M14.59 8.52C14.59 8.21 14.54 7.93 14.44 7.67C14.35 7.4 14.2 7.18 14 6.99C13.8 6.8 13.55 6.66 13.25 6.55C12.95 6.45 12.59 6.39 12.19 6.39C11.8 6.39 11.45 6.43 11.16 6.52C10.87 6.61 10.63 6.73 10.44 6.88C10.25 7.04 10.1 7.22 10 7.43C9.9 7.64 9.85 7.86 9.85 8.09C9.85 8.57 10.1 8.97 10.59 9.3C10.97 9.55 11.36 9.78 12 10H7.39C7.34 9.92 7.28 9.83 7.24 9.75C6.98 9.27 6.85 8.72 6.85 8.08C6.85 7.47 6.98 6.92 7.25 6.41C7.51 5.91 7.88 5.48 8.36 5.12C8.84 4.77 9.41 4.49 10.06 4.29C10.72 4.1 11.45 4 12.24 4C13.05 4 13.78 4.11 14.45 4.34C15.11 4.56 15.68 4.88 16.14 5.28C16.61 5.68 16.97 6.16 17.22 6.71C17.47 7.26 17.6 7.86 17.6 8.52H14.59ZM20 11H4C3.45 11 3 11.45 3 12C3 12.55 3.45 13 4 13H12.62C12.8 13.07 13.02 13.14 13.17 13.2C13.54 13.37 13.83 13.54 14.04 13.71C14.25 13.88 14.39 14.07 14.47 14.28C14.54 14.48 14.58 14.71 14.58 14.97C14.58 15.2 14.53 15.42 14.44 15.63C14.35 15.83 14.21 16.01 14.02 16.16C13.83 16.31 13.6 16.42 13.31 16.51C13.02 16.59 12.68 16.64 12.3 16.64C11.87 16.64 11.47 16.6 11.12 16.51C10.77 16.42 10.46 16.28 10.21 16.09C9.96 15.9 9.76 15.65 9.62 15.34C9.48 15.03 9.37 14.58 9.37 14.13H6.4C6.4 14.68 6.48 15.26 6.64 15.71C6.8 16.16 7.01 16.56 7.29 16.92C7.57 17.27 7.89 17.58 8.27 17.84C8.64 18.1 9.05 18.32 9.49 18.49C9.93 18.66 10.39 18.79 10.87 18.88C11.35 18.96 11.83 19.01 12.31 19.01C13.11 19.01 13.84 18.92 14.49 18.73C15.14 18.54 15.7 18.28 16.16 17.94C16.62 17.6 16.98 17.17 17.23 16.67C17.48 16.17 17.61 15.6 17.61 14.96C17.61 14.36 17.51 13.82 17.3 13.35C17.25 13.24 17.19 13.12 17.13 13.02H20C20.55 13.02 21 12.57 21 12.02V12C21 11.45 20.55 11 20 11Z" fill="black"/>
</svg>
