<svg width="24" height="24" viewBox="0 0 24 24" fill="none" xmlns="http://www.w3.org/2000/svg">
    <path d="M9 7H20C20.55 7 21 6.55 21 6C21 5.45 20.55 5 20 5H9C8.45 5 8 5.45 8 6C8 6.55 8.45 7 9 7ZM20 17H9C8.45 17 8 17.45 8 18C8 18.55 8.45 19 9 19H20C20.55 19 21 18.55 21 18C21 17.45 20.55 17 20 17ZM20 11H9C8.45 11 8 11.45 8 12C8 12.55 8.45 13 9 13H20C20.55 13 21 12.55 21 12C21 11.45 20.55 11 20 11ZM5.5 16H3.5C3.22 16 3 16.22 3 16.5C3 16.78 3.22 17 3.5 17H5V17.5H4.5C4.22 17.5 4 17.72 4 18C4 18.28 4.22 18.5 4.5 18.5H5V19H3.5C3.22 19 3 19.22 3 19.5C3 19.78 3.22 20 3.5 20H5.5C5.78 20 6 19.78 6 19.5V16.5C6 16.22 5.78 16 5.5 16ZM3.5 5H4V7.5C4 7.78 4.22 8 4.5 8C4.78 8 5 7.78 5 7.5V4.5C5 4.22 4.78 4 4.5 4H3.5C3.22 4 3 4.22 3 4.5C3 4.78 3.22 5 3.5 5ZM5.5 10H3.5C3.22 10 3 10.22 3 10.5C3 10.78 3.22 11 3.5 11H4.8L3.12 12.96C3.04 13.05 3 13.17 3 13.28V13.5C3 13.78 3.22 14 3.5 14H5.5C5.78 14 6 13.78 6 13.5C6 13.22 5.78 13 5.5 13H4.2L5.88 11.04C5.96 10.95 6 10.83 6 10.72V10.5C6 10.22 5.78 10 5.5 10Z"
          fill="black"/>
</svg>
