<svg width="24" height="24" viewBox="0 0 24 24" fill="none" xmlns="http://www.w3.org/2000/svg">
<path d="M4 13C4.55 13 5 12.55 5 12C5 11.45 4.55 11 4 11C3.45 11 3 11.45 3 12C3 12.55 3.45 13 4 13ZM4 18C4.55 18 5 17.55 5 17C5 16.45 4.55 16 4 16C3.45 16 3 16.45 3 17C3 17.55 3.45 18 4 18ZM4 8C4.55 8 5 7.55 5 7C5 6.45 4.55 6 4 6C3.45 6 3 6.45 3 7C3 7.55 3.45 8 4 8ZM8 13H20C20.55 13 21 12.55 21 12C21 11.45 20.55 11 20 11H8C7.45 11 7 11.45 7 12C7 12.55 7.45 13 8 13ZM8 18H20C20.55 18 21 17.55 21 17C21 16.45 20.55 16 20 16H8C7.45 16 7 16.45 7 17C7 17.55 7.45 18 8 18ZM7 7C7 7.55 7.45 8 8 8H20C20.55 8 21 7.55 21 7C21 6.45 20.55 6 20 6H8C7.45 6 7 6.45 7 7ZM4 13C4.55 13 5 12.55 5 12C5 11.45 4.55 11 4 11C3.45 11 3 11.45 3 12C3 12.55 3.45 13 4 13ZM4 18C4.55 18 5 17.55 5 17C5 16.45 4.55 16 4 16C3.45 16 3 16.45 3 17C3 17.55 3.45 18 4 18ZM4 8C4.55 8 5 7.55 5 7C5 6.45 4.55 6 4 6C3.45 6 3 6.45 3 7C3 7.55 3.45 8 4 8ZM8 13H20C20.55 13 21 12.55 21 12C21 11.45 20.55 11 20 11H8C7.45 11 7 11.45 7 12C7 12.55 7.45 13 8 13ZM8 18H20C20.55 18 21 17.55 21 17C21 16.45 20.55 16 20 16H8C7.45 16 7 16.45 7 17C7 17.55 7.45 18 8 18ZM7 7C7 7.55 7.45 8 8 8H20C20.55 8 21 7.55 21 7C21 6.45 20.55 6 20 6H8C7.45 6 7 6.45 7 7Z" fill="black"/>
</svg>
