<svg width="24" height="24" viewBox="0 0 24 24" fill="none" xmlns="http://www.w3.org/2000/svg">
    <path d="M4.5 7.5C5.32843 7.5 6 6.82843 6 6C6 5.17157 5.32843 4.5 4.5 4.5C3.67157 4.5 3 5.17157 3 6C3 6.82843 3.67157 7.5 4.5 7.5Z"
          fill="black"/>
    <path d="M8 6C8 6.55 8.45 7 9 7H20C20.55 7 21 6.55 21 6C21 5.45 20.55 5 20 5H9C8.45 5 8 5.45 8 6Z" fill="black"/>
    <path d="M4.5 13.5C5.32843 13.5 6 12.8284 6 12C6 11.1716 5.32843 10.5 4.5 10.5C3.67157 10.5 3 11.1716 3 12C3 12.8284 3.67157 13.5 4.5 13.5Z"
          fill="black"/>
    <path d="M20 13C20.55 13 21 12.55 21 12C21 11.45 20.55 11 20 11H9C8.45 11 8 11.45 8 12C8 12.55 8.45 13 9 13H20Z"
          fill="black"/>
    <path d="M6 18C6 18.8284 5.32843 19.5 4.5 19.5C3.67157 19.5 3 18.8284 3 18C3 17.1716 3.67157 16.5 4.5 16.5C5.32843 16.5 6 17.1716 6 18Z"
          fill="black"/>
    <path d="M20 17H9C8.45 17 8 17.45 8 18C8 18.55 8.45 19 9 19H20C20.55 19 21 18.55 21 18C21 17.45 20.55 17 20 17Z"
          fill="black"/>
</svg>
