<svg width="24" height="24" viewBox="0 0 24 24" fill="none" xmlns="http://www.w3.org/2000/svg">
    <path d="M5 8C4.44772 8 4 8.44772 4 9C4 9.55228 4.44772 10 5 10L19 10C19.5523 10 20 9.55229 20 9C20 8.44772 19.5523 8 19 8H5Z"
          fill="black"/>
    <path d="M5 14C4.44772 14 4 14.4477 4 15C4 15.5523 4.44772 16 5 16L19 16C19.5523 16 20 15.5523 20 15C20 14.4477 19.5523 14 19 14H5Z"
          fill="black"/>
    <path d="M16 5C16 4.44772 15.5523 4 15 4C14.4477 4 14 4.44772 14 5L14 19C14 19.5523 14.4477 20 15 20C15.5523 20 16 19.5523 16 19L16 5Z"
          fill="black"/>
    <path d="M10 5C10 4.44772 9.55229 4 9 4C8.44772 4 8 4.44771 8 5L8 19C8 19.5523 8.44771 20 9 20C9.55228 20 10 19.5523 10 19L10 5Z"
          fill="black"/>
</svg>
