<svg width="24" height="24" viewBox="0 0 24 24" fill="none" xmlns="http://www.w3.org/2000/svg">
<path d="M6.05 4.14L5.66 3.75C5.27 3.36 4.64 3.37 4.26 3.75L4.25 3.76C3.86 4.15 3.86 4.78 4.25 5.16L4.64 5.55C5.03 5.94 5.65 5.94 6.04 5.55L6.05 5.54C6.44 5.16 6.44 4.52 6.05 4.14ZM3.01 10.5H1.99C1.44 10.5 1 10.94 1 11.49V11.5C1 12.05 1.44 12.49 1.99 12.49H3C3.56 12.5 4 12.06 4 11.51V11.5C4 10.94 3.56 10.5 3.01 10.5ZM12.01 0.550003H12C11.44 0.550003 11 0.990003 11 1.54V2.5C11 3.05 11.44 3.49 11.99 3.49H12C12.56 3.5 13 3.06 13 2.51V1.54C13 0.990003 12.56 0.550003 12.01 0.550003ZM19.75 3.76C19.36 3.37 18.73 3.37 18.34 3.75L17.95 4.14C17.56 4.53 17.56 5.16 17.95 5.54L17.96 5.55C18.35 5.94 18.98 5.94 19.36 5.55L19.75 5.16C20.14 4.77 20.14 4.15 19.75 3.76ZM17.94 18.86L18.33 19.25C18.72 19.64 19.35 19.64 19.74 19.25C20.13 18.86 20.13 18.23 19.74 17.84L19.35 17.45C18.96 17.06 18.33 17.07 17.95 17.45C17.55 17.85 17.55 18.47 17.94 18.86ZM20 11.49V11.5C20 12.05 20.44 12.49 20.99 12.49H22C22.55 12.49 22.99 12.05 22.99 11.5V11.49C22.99 10.94 22.55 10.5 22 10.5H20.99C20.44 10.5 20 10.94 20 11.49ZM12 5.5C8.69 5.5 6 8.19 6 11.5C6 14.81 8.69 17.5 12 17.5C15.31 17.5 18 14.81 18 11.5C18 8.19 15.31 5.5 12 5.5ZM11.99 22.45H12C12.55 22.45 12.99 22.01 12.99 21.46V20.5C12.99 19.95 12.55 19.51 12 19.51H11.99C11.44 19.51 11 19.95 11 20.5V21.46C11 22.01 11.44 22.45 11.99 22.45ZM4.25 19.24C4.64 19.63 5.27 19.63 5.66 19.24L6.05 18.85C6.44 18.46 6.43 17.83 6.05 17.45L6.04 17.44C5.65 17.05 5.02 17.05 4.63 17.44L4.24 17.83C3.86 18.23 3.86 18.85 4.25 19.24Z" fill="black"/>
</svg>
