<svg width="24" height="24" viewBox="0 0 24 24" fill="none" xmlns="http://www.w3.org/2000/svg">
<path d="M19.5403 13.5013H18V7.92743C18 7.41734 17.4996 7 16.9986 7C16.4975 7 16 7.41734 16 7.92743V13.5013H14.4569C14.0469 13.5013 13.8465 14.0021 14.138 14.2896L16.6797 16.8678C16.8619 17.0441 17.1444 17.0441 17.3266 16.8678L19.8683 14.2896C20.1507 14.0021 19.9502 13.5013 19.5403 13.5013Z" fill="#757575"/>
<path fill-rule="evenodd" clip-rule="evenodd" d="M4.98683 6.99988C4.90248 7.001 4.81727 7.01284 4.73307 7.03616C4.29989 7.15614 4 7.5504 4 7.99988V15.9999C4 16.5522 4.44772 16.9999 5 16.9999C5.55228 16.9999 6 16.5522 6 15.9999V11.6102L7.14251 13.5144C7.32323 13.8156 7.64874 13.9999 8 13.9999C8.35126 13.9999 8.67677 13.8156 8.85749 13.5144L10 11.6102V15.9999C10 16.5522 10.4477 16.9999 11 16.9999C11.5523 16.9999 12 16.5522 12 15.9999V7.99988C12 7.5504 11.7001 7.15614 11.2669 7.03616C11.1827 7.01284 11.0975 7.001 11.0132 6.99988H10.9868C10.6468 7.00438 10.3241 7.1827 10.1425 7.48538L8 11.0562L5.85749 7.48538C5.67588 7.1827 5.35321 7.00438 5.01324 6.99988H4.98683Z" fill="#757575"/>
</svg>
