<svg width="24" height="24" viewBox="0 0 24 24" fill="none" xmlns="http://www.w3.org/2000/svg">
    <path d="M13 8.49872H14.5403C14.9502 8.49872 15.1507 7.99791 14.8683 7.71041L12.3266 5.13216C12.1444 4.95595 11.8619 4.95595 11.6797 5.13216L9.13805 7.71041C8.84653 7.99791 9.04695 8.49872 9.4569 8.49872H11V11H6C5.44772 11 5 11.4477 5 12C5 12.5523 5.44772 13 6 13H11V15.5013H9.4569C9.04695 15.5013 8.84653 16.0021 9.13805 16.2896L11.6797 18.8678C11.8619 19.0441 12.1444 19.0441 12.3266 18.8678L14.8683 16.2896C15.1507 16.0021 14.9502 15.5013 14.5403 15.5013H13V13H18C18.5523 13 19 12.5523 19 12C19 11.4477 18.5523 11 18 11H13V8.49872Z"
          fill="black"/>
</svg>
