<svg width="24" height="24" viewBox="0 0 24 24" fill="none" xmlns="http://www.w3.org/2000/svg">
<path d="M19 14.5C19 14.5 17 16.67 17 18C17 18.5304 17.2107 19.0391 17.5858 19.4142C17.9609 19.7893 18.4696 20 19 20C19.5304 20 20.0391 19.7893 20.4142 19.4142C20.7893 19.0391 21 18.5304 21 18C21 16.67 19 14.5 19 14.5ZM5.21 13L10 8.21L14.79 13H5.21ZM16.56 11.94L7.62 3L6.21 4.41L8.59 6.79L3.44 11.94C2.85 12.5 2.85 13.47 3.44 14.06L8.94 19.56C9.23 19.85 9.62 20 10 20C10.38 20 10.77 19.85 11.06 19.56L16.56 14.06C17.15 13.47 17.15 12.5 16.56 11.94Z" fill="black"/>
</svg>
