<svg width="24" height="24" viewBox="0 0 24 24" fill="none" xmlns="http://www.w3.org/2000/svg">
    <path fill-rule="evenodd" clip-rule="evenodd"
          d="M8 16C8.83 16 9.5 15.33 9.5 14.5V13.5C9.5 12.67 8.83 12 8 12H6.5C5.95 12 5.5 12.45 5.5 13V17.25C5.5 17.66 5.84 18 6.25 18C6.66 18 7 17.66 7 17.25V16H8ZM8 14.5H7V13.5H8V14.5Z"
          fill="black"/>
    <path fill-rule="evenodd" clip-rule="evenodd"
          d="M13 18C13.83 18 14.5 17.33 14.5 16.5V13.5C14.5 12.67 13.83 12 13 12H11C10.72 12 10.5 12.22 10.5 12.5V17.5C10.5 17.78 10.72 18 11 18H13ZM13 16.5H12V13.5H13V16.5Z"
          fill="black"/>
    <path d="M17.75 13.5C18.16 13.5 18.5 13.16 18.5 12.75C18.5 12.34 18.16 12 17.75 12H16.5C15.95 12 15.5 12.45 15.5 13V17.25C15.5 17.66 15.84 18 16.25 18C16.66 18 17 17.66 17 17.25V16H17.75C18.16 16 18.5 15.66 18.5 15.25C18.5 14.84 18.16 14.5 17.75 14.5H17V13.5H17.75Z"
          fill="black"/>
    <path fill-rule="evenodd" clip-rule="evenodd"
          d="M4.5 2C3.11929 2 2 3.11929 2 4.5V19.5C2 20.8807 3.11929 22 4.5 22H19.5C20.8807 22 22 20.8807 22 19.5V9C22 8.73478 21.8946 8.48043 21.7071 8.29289L15.7071 2.29289C15.5196 2.10536 15.2652 2 15 2H4.5ZM4 4.5C4 4.22386 4.22386 4 4.5 4H14V9C14 9.55228 14.4477 10 15 10H20V19.5C20 19.7761 19.7761 20 19.5 20H4.5C4.22386 20 4 19.7761 4 19.5V4.5Z"
          fill="black"/>
</svg>
