<svg width="24" height="24" viewBox="0 0 24 24" fill="none" xmlns="http://www.w3.org/2000/svg">
<path d="M9.5 14.5C9.5 15.33 8.83 16 8 16H7V17.25C7 17.66 6.66 18 6.25 18C5.84 18 5.5 17.66 5.5 17.25V13C5.5 12.45 5.95 12 6.5 12H8C8.83 12 9.5 12.67 9.5 13.5V14.5ZM14.5 16.5C14.5 17.33 13.83 18 13 18H11C10.72 18 10.5 17.78 10.5 17.5V12.5C10.5 12.22 10.72 12 11 12H13C13.83 12 14.5 12.67 14.5 13.5V16.5ZM18.5 12.75C18.5 13.16 18.16 13.5 17.75 13.5H17V14.5H17.75C18.16 14.5 18.5 14.84 18.5 15.25C18.5 15.66 18.16 16 17.75 16H17V17.25C17 17.66 16.66 18 16.25 18C15.84 18 15.5 17.66 15.5 17.25V13C15.5 12.45 15.95 12 16.5 12H17.75C18.16 12 18.5 12.34 18.5 12.75ZM7 14.5H8V13.5H7V14.5ZM12 16.5H13V13.5H12V16.5Z" fill="black"/>
<path d="M21 9V19.5C21 20.3284 20.3284 21 19.5 21H4.5C3.67157 21 3 20.3284 3 19.5V4.5C3 3.67157 3.67157 3 4.5 3H15M21 9L18 6M21 9H18.5M15 3L18 6M15 3V5.5M15 9L18 6M15 9V5.5M15 9H18.5M15 5.5L18.5 9" stroke="black" stroke-width="2" stroke-linejoin="round"/>
</svg>
