<svg width="24" height="24" viewBox="0 0 24 24" fill="none" xmlns="http://www.w3.org/2000/svg">
    <path d="M3 5.5C3 4.11929 4.11929 3 5.5 3H18.5C19.8807 3 21 4.11929 21 5.5V10C21 10.5523 20.5523 11 20 11C19.4477 11 19 10.5523 19 10V5.5C19 5.22386 18.7761 5 18.5 5H5.5C5.22386 5 5 5.22386 5 5.5V18.5C5 18.7761 5.22386 19 5.5 19H15C15.5523 19 16 19.4477 16 20C16 20.5523 15.5523 21 15 21H5.5C4.11929 21 3 19.8807 3 18.5V5.5Z"
          fill="black"/>
    <path d="M19.7071 13.2929L22.7071 16.2929C23.0976 16.6834 23.0976 17.3166 22.7071 17.7071L19.7071 20.7071C19.3166 21.0976 18.6834 21.0976 18.2929 20.7071C17.9024 20.3166 17.9024 19.6834 18.2929 19.2929L20.5858 17L18.2929 14.7071C17.9024 14.3166 17.9024 13.6834 18.2929 13.2929C18.6834 12.9024 19.3166 12.9024 19.7071 13.2929Z"
          fill="black"/>
    <path d="M8 7C7.44772 7 7 7.44772 7 8C7 8.55228 7.44772 9 8 9H16C16.5523 9 17 8.55228 17 8C17 7.44772 16.5523 7 16 7H8Z"
          fill="black"/>
    <path d="M7 12C7 11.4477 7.44772 11 8 11H16C16.5523 11 17 11.4477 17 12C17 12.5523 16.5523 13 16 13H8C7.44772 13 7 12.5523 7 12Z"
          fill="black"/>
    <path d="M8 15C7.44772 15 7 15.4477 7 16C7 16.5523 7.44772 17 8 17H12C12.5523 17 13 16.5523 13 16C13 15.4477 12.5523 15 12 15H8Z"
          fill="black"/>
</svg>
