<svg width="24" height="24" viewBox="0 0 24 24" fill="none" xmlns="http://www.w3.org/2000/svg">
    <path fill-rule="evenodd" clip-rule="evenodd"
          d="M15.7833 14.282C15.6032 14.1015 15.3587 14 15.1036 14H14.8274C14.7509 14 14.6775 13.9697 14.6232 13.9158C14.5154 13.8088 14.5091 13.6372 14.6032 13.5179C15.476 12.4118 16 11.0182 16 9.5C16 5.91 13.09 3 9.5 3C5.91 3 3 5.91 3 9.5C3 13.09 5.91 16 9.5 16C11.0187 16 12.4118 15.4765 13.518 14.6042C13.6369 14.5104 13.8077 14.5161 13.9152 14.6228C13.9701 14.6773 14.001 14.7515 14.001 14.829V15.1048C14.001 15.3578 14.1016 15.6005 14.2806 15.7792L18.2528 19.7458C18.665 20.1575 19.3328 20.1572 19.7447 19.7453C20.1565 19.3335 20.1569 18.6661 19.7456 18.2538L15.7833 14.282ZM9.5 14C7.014 14 5 11.986 5 9.5C5 7.015 7.014 5 9.5 5C11.985 5 14 7.015 14 9.5C14 11.986 11.985 14 9.5 14Z"
          fill="#757575"/>
</svg>
