<svg width="24" height="24" viewBox="0 0 24 24" fill="none" xmlns="http://www.w3.org/2000/svg">
<path d="M18.4434 12.882C18.4794 12.594 18.5064 12.306 18.5064 12C18.5064 11.694 18.4794 11.406 18.4434 11.118L20.3424 9.633C20.5134 9.498 20.5584 9.255 20.4504 9.057L18.6504 5.943C18.5424 5.745 18.2994 5.673 18.1014 5.745L15.8604 6.645C15.3924 6.285 14.8884 5.988 14.3394 5.763L13.9974 3.378C13.9704 3.162 13.7814 3 13.5564 3H9.9564C9.7314 3 9.5424 3.162 9.5154 3.378L9.1734 5.763C8.6244 5.988 8.1204 6.294 7.6524 6.645L5.4114 5.745C5.2044 5.664 4.9704 5.745 4.8624 5.943L3.0624 9.057C2.9454 9.255 2.9994 9.498 3.1704 9.633L5.0694 11.118C5.0334 11.406 5.0064 11.703 5.0064 12C5.0064 12.297 5.0334 12.594 5.0694 12.882L3.1704 14.367C2.9994 14.502 2.9544 14.745 3.0624 14.943L4.8624 18.057C4.9704 18.255 5.2134 18.327 5.4114 18.255L7.6524 17.355C8.1204 17.715 8.6244 18.012 9.1734 18.237L9.5154 20.622C9.5424 20.838 9.7314 21 9.9564 21H13.5564C13.7814 21 13.9704 20.838 13.9974 20.622L14.3394 18.237C14.8884 18.012 15.3924 17.706 15.8604 17.355L18.1014 18.255C18.3084 18.336 18.5424 18.255 18.6504 18.057L20.4504 14.943C20.5584 14.745 20.5134 14.502 20.3424 14.367L18.4434 12.882ZM11.7564 15.15C10.0194 15.15 8.6064 13.737 8.6064 12C8.6064 10.263 10.0194 8.85 11.7564 8.85C13.4934 8.85 14.9064 10.263 14.9064 12C14.9064 13.737 13.4934 15.15 11.7564 15.15Z" stroke="#757575" stroke-width="2" stroke-linejoin="round"/>
</svg>
