<svg width="24" height="24" viewBox="0 0 24 24" fill="none" xmlns="http://www.w3.org/2000/svg">
<path fill-rule="evenodd" clip-rule="evenodd"
      d="M8.52459 3.24253C8.62243 2.50674 9.25686 2 9.9564 2H13.5564C14.2559 2 14.8904 2.50674 14.9882 3.24253L15.2519 5.08165C15.5091 5.21194 15.7565 5.35623 15.9949 5.51337L17.7287 4.81704C17.739 4.81292 17.7493 4.80898 17.7597 4.80521C18.363 4.58583 19.1459 4.77986 19.5207 5.45044L21.3162 8.55655C21.3203 8.5637 21.3243 8.5709 21.3283 8.57815C21.6554 9.17789 21.5385 9.96278 20.962 10.4179L20.9584 10.4207L19.492 11.5675C19.501 11.7067 19.5064 11.8508 19.5064 12C19.5064 12.1492 19.501 12.2933 19.492 12.4325L20.962 13.5821C21.5385 14.0372 21.6554 14.8221 21.3283 15.4219C21.3263 15.4255 21.3243 15.4291 21.3223 15.4327C21.3203 15.4363 21.3182 15.4399 21.3162 15.4434L19.5207 18.5496C19.1623 19.1904 18.3967 19.4444 17.737 19.1862L17.7287 19.183L15.9911 18.4851C15.7559 18.6397 15.5098 18.7848 15.2522 18.9167L14.9882 20.7575C14.8904 21.4933 14.2559 22 13.5564 22H9.9564C9.25686 22 8.62243 21.4933 8.52459 20.7575L8.26087 18.9184C8.00372 18.7881 7.7563 18.6438 7.51793 18.4866L5.78407 19.183C5.77383 19.1871 5.76351 19.191 5.75314 19.1948C5.14983 19.4142 4.36692 19.2201 3.99207 18.5496L2.19663 15.4434C2.1925 15.4363 2.18845 15.4291 2.1845 15.4219C1.85736 14.8221 1.97429 14.0372 2.55075 13.5821L2.55438 13.5793L4.02106 12.4323C4.01189 12.2914 4.0064 12.1468 4.0064 12C4.0064 11.8532 4.01189 11.7086 4.02106 11.5677L2.55075 10.4179C2.00366 9.98598 1.82113 9.19785 2.1984 8.55349L3.99211 5.45037C4.35045 4.80964 5.11609 4.55561 5.7758 4.81376L5.78409 4.817L7.52165 5.51486C7.75685 5.36035 8.00295 5.21516 8.26063 5.08334L8.52459 3.24253ZM10.5077 3.50203C10.5072 3.50577 10.5067 3.50949 10.5062 3.5132L10.5077 3.50203ZM10.4364 4L10.1633 5.90494C10.113 6.25584 9.88063 6.55388 9.55262 6.6883C9.09906 6.87419 8.6687 7.13277 8.2524 7.445C7.97281 7.65469 7.60403 7.70321 7.27972 7.57296L5.4906 6.85444L4.16755 9.14331L5.6854 10.3303C5.96242 10.5469 6.10529 10.8931 6.06167 11.242C6.02823 11.5096 6.0064 11.7611 6.0064 12C6.0064 12.2389 6.02823 12.4904 6.06167 12.758C6.10529 13.1069 5.96242 13.4531 5.6854 13.6697L4.16755 14.8567L5.4906 17.1456L7.27972 16.427C7.60807 16.2952 7.98165 16.3466 8.26211 16.5624C8.66487 16.8722 9.09202 17.1229 9.55262 17.3117C9.88063 17.4461 10.113 17.7442 10.1633 18.0951L10.4364 20H13.0764L13.3495 18.0951C13.3998 17.7442 13.6322 17.4461 13.9602 17.3117C14.4137 17.1258 14.8441 16.8672 15.2604 16.555C15.54 16.3453 15.9088 16.2968 16.2331 16.427L18.0222 17.1456L19.3452 14.8567L17.8274 13.6697C17.5504 13.4531 17.4075 13.1069 17.4511 12.758C17.4847 12.4895 17.5064 12.2473 17.5064 12C17.5064 11.7527 17.4847 11.5105 17.4511 11.242C17.4075 10.8931 17.5504 10.5469 17.8274 10.3303L19.3452 9.14331L18.0222 6.85444L16.2331 7.57296C15.9047 7.70483 15.5311 7.65336 15.2507 7.43762C14.8479 7.12781 14.4208 6.87707 13.9602 6.6883C13.6322 6.55388 13.3998 6.25584 13.3495 5.90494L13.0764 4H10.4364ZM13.0051 3.50203L13.0066 3.5132C13.0061 3.50949 13.0056 3.50577 13.0051 3.50203ZM11.7564 9.85C10.5717 9.85 9.6064 10.8153 9.6064 12C9.6064 13.1847 10.5717 14.15 11.7564 14.15C12.9411 14.15 13.9064 13.1847 13.9064 12C13.9064 10.8153 12.9411 9.85 11.7564 9.85ZM7.6064 12C7.6064 9.71072 9.46711 7.85 11.7564 7.85C14.0457 7.85 15.9064 9.71072 15.9064 12C15.9064 14.2893 14.0457 16.15 11.7564 16.15C9.46711 16.15 7.6064 14.2893 7.6064 12Z"
      fill="#757575"/>
</svg>
