<svg width="24" height="24" viewBox="0 0 24 24" fill="none" xmlns="http://www.w3.org/2000/svg">
    <path d="M13.26 3.00001C8.17003 2.86001 4.00003 6.95001 4.00003 12H2.21003C1.76003 12 1.54003 12.54 1.86003 12.85L4.65003 15.65C4.85003 15.85 5.16003 15.85 5.36003 15.65L8.15003 12.85C8.46003 12.54 8.24003 12 7.79003 12H6.00003C6.00003 8.10001 9.18003 4.95001 13.1 5.00001C16.82 5.05001 19.95 8.18001 20 11.9C20.05 15.81 16.9 19 13 19C11.39 19 9.90003 18.45 8.72003 17.52C8.32003 17.21 7.76003 17.24 7.40003 17.6C6.98003 18.02 7.01003 18.73 7.48003 19.09C9.00003 20.29 10.91 21 13 21C18.05 21 22.14 16.83 22 11.74C21.87 7.05001 17.95 3.13001 13.26 3.00001ZM12.75 8.00001C12.34 8.00001 12 8.34001 12 8.75001V12.43C12 12.78 12.19 13.11 12.49 13.29L15.61 15.14C15.97 15.35 16.43 15.23 16.64 14.88C16.85 14.52 16.73 14.06 16.38 13.85L13.5 12.14V8.74001C13.5 8.34001 13.16 8.00001 12.75 8.00001Z"
          fill="black"/>
</svg>
