<svg width="24" height="24" viewBox="0 0 24 24" fill="none" xmlns="http://www.w3.org/2000/svg">
    <path d="M14.0403 4.49872H10.9569C10.5469 4.49872 10.3465 3.99791 10.638 3.71041L12.1797 2.13216C12.3619 1.95595 12.6444 1.95595 12.8266 2.13216L14.3683 3.71041C14.6507 3.99791 14.4502 4.49872 14.0403 4.49872Z"
          fill="black"/>
    <path d="M10.9597 19.5013H14.0431C14.4531 19.5013 14.6535 20.0021 14.362 20.2896L12.8203 21.8678C12.6381 22.0441 12.3556 22.0441 12.1734 21.8678L10.6317 20.2896C10.3493 20.0021 10.5498 19.5013 10.9597 19.5013Z"
          fill="black"/>
    <path fill-rule="evenodd" clip-rule="evenodd"
          d="M11.0567 17.9895C11.6618 17.9895 12.0753 17.3618 11.8535 16.7759L8.09168 6.79512C7.91015 6.31386 7.45631 6 6.96214 6C6.46796 6 6.01413 6.31386 5.83259 6.79512L2.06072 16.7655C1.83884 17.3514 2.25234 17.9791 2.85745 17.9791C3.21043 17.9791 3.53316 17.7489 3.66427 17.4037L4.38032 15.4159H9.53387L10.2499 17.4037C10.381 17.7594 10.7038 17.9895 11.0567 17.9895ZM4.99552 13.7105L6.95205 8.29119L8.90858 13.7105H4.99552Z"
          fill="black"/>
    <path d="M21.2125 16.3261H15.8371L21.6059 7.65301C22.0698 6.96251 21.5857 6.01046 20.7789 6.01046H14.2437C13.7999 6.01046 13.4469 6.3871 13.4469 6.84743V6.85789C13.4469 7.31822 13.81 7.69486 14.2437 7.69486H19.377L13.5982 16.3575C13.1343 17.048 13.6184 18 14.4252 18H21.2025C21.6462 18 21.9992 17.6234 21.9992 17.1735C22.0194 16.7027 21.6563 16.3261 21.2125 16.3261Z"
          fill="black"/>
</svg>
