<svg width="24" height="24" viewBox="0 0 24 24" fill="none" xmlns="http://www.w3.org/2000/svg">
<path d="M19.9625 15.2597C20.7925 15.1797 21.6825 16.3597 21.1525 17.1097C20.8325 17.5597 20.4925 17.9797 20.0725 18.3797C16.1625 22.3097 9.8325 22.3097 5.9325 18.3797C2.0225 14.4797 2.0225 8.13974 5.9325 4.23974C6.3325 3.83974 6.7525 3.47974 7.2025 3.15974C7.9525 2.62974 9.1325 3.51974 9.0525 4.34974C8.7825 7.20974 9.7425 10.1797 11.9425 12.3697C14.1325 14.5697 17.0925 15.5297 19.9625 15.2597ZM18.3225 17.2797C15.4925 17.1197 12.6925 15.9497 10.5225 13.8097C8.3525 11.6197 7.1925 8.80974 7.0325 5.98974C4.2225 9.12974 4.3325 13.9497 7.3425 16.9697C10.3625 19.9797 15.1825 20.0897 18.3225 17.2797Z" fill="black"/>
</svg>
