<svg width="24" height="24" viewBox="0 0 24 24" fill="none" xmlns="http://www.w3.org/2000/svg">
    <path d="M17.0025 13C17.0053 12.6099 16.8579 12.2227 16.56 11.94L7.96967 3.34968C7.78627 3.13563 7.51397 3 7.20999 3C6.65771 3 6.20999 3.44772 6.20999 4C6.20999 4.30401 6.34565 4.57634 6.55974 4.75974L8.59 6.79L3.44 11.94C3.14213 12.2227 2.99465 12.6099 2.99754 13L5.21 13L10 8.21L14.79 13L17.0025 13Z"
          fill="black"/>
    <path d="M17.0024 13C16.9996 13.3826 16.8521 13.7679 16.56 14.06L11.06 19.56C10.77 19.85 10.38 20 9.99999 20C9.61999 20 9.22999 19.85 8.93999 19.56L3.43999 14.06C3.14785 13.7679 3.00036 13.3826 2.99753 13H17.0024Z"
          fill="black"/>
    <path d="M17 18C17 16.67 19 14.5 19 14.5C19 14.5 21 16.67 21 18C21 18.5304 20.7893 19.0391 20.4142 19.4142C20.0391 19.7893 19.5304 20 19 20C18.4696 20 17.9608 19.7893 17.5858 19.4142C17.2107 19.0391 17 18.5304 17 18Z"
          fill="black"/>
</svg>
