<svg width="108" height="108" viewBox="0 0 108 108" fill="none" xmlns="http://www.w3.org/2000/svg">
<g clip-path="url(#clip0)">
<path d="M108 0H0V108H108V0Z" fill="url(#paint0_linear)"/>
<g filter="url(#filter0_i)">
<path d="M44.5 80H120C120.828 80 121.5 79.3284 121.5 78.5C121.5 77.6716 120.828 77 120 77H44.5C43.6716 77 43 77.6716 43 78.5C43 79.3284 43.6716 80 44.5 80Z" fill="#5A1EB9"/>
</g>
</g>
<g clip-path="url(#clip1)">
<mask id="mask0" mask-type="alpha" maskUnits="userSpaceOnUse" x="24" y="62" width="40" height="26">
<path d="M24 62H64L63.5 68.4286L53 77H49V88H24V62Z" fill="#C4C4C4"/>
</mask>
<g mask="url(#mask0)">
<path d="M108 0H0V108H108V0Z" fill="url(#paint1_linear)"/>
</g>
<g filter="url(#filter1_dd)">
<mask id="mask1" mask-type="alpha" maskUnits="userSpaceOnUse" x="35" y="1" width="50" height="83">
<path d="M66.3425 55.4277C66.9962 58.7693 68.1631 61.8565 69.4555 63.7352C69.7524 64.1668 69.6659 64.7544 69.2572 65.0821L52.0328 78.8948C52.0249 78.901 52.017 78.9072 52.009 78.9132L50.7928 79.8297C50.547 80.015 50.2295 80.0767 49.9322 79.997C49.6349 79.9173 49.3908 79.7052 49.2705 79.4218L48.6755 78.02C48.6716 78.0108 48.6678 78.0015 48.6642 77.9921L40.654 57.4179C40.5751 57.2152 40.5667 57.0014 40.6177 56.8046L40.6219 56.789C40.6967 56.5184 40.8844 56.2816 41.1557 56.1523C43.2143 55.1715 45.7686 53.0813 48.0055 50.5143C49.2189 49.1217 50.3079 47.6244 51.1606 46.1345C49.7869 43.8881 50.6313 43.6048 51.1383 40.8583C49.5665 39.9902 48.7261 38.1348 49.2117 36.3224L56.9763 7.34458C57.691 4.67725 60.4327 3.09434 63.1 3.80905L76.623 7.43251C79.2903 8.14722 80.8732 10.8889 80.1585 13.5562L72.3939 42.534C71.9083 44.3465 70.2528 45.533 68.4575 45.499C67.5234 48.131 68.113 48.7986 65.8001 50.0571C65.7936 51.7738 65.9879 53.615 66.3425 55.4277Z" fill="#C4C4C4"/>
</mask>
<g mask="url(#mask1)">
<g filter="url(#filter2_i)">
<path d="M65.3043 45.8107C63.8135 51.3745 65.8376 60.2404 68.6316 64.302L51.4072 78.1146L50.191 79.0311L49.596 77.6293L41.5859 57.0551C46.0363 54.9347 52.2224 48.2686 53.7132 42.7049L65.3043 45.8107Z" fill="#FAFAFA"/>
<path fill-rule="evenodd" clip-rule="evenodd" d="M52.7473 42.4461C52.8902 41.9126 53.4385 41.596 53.972 41.739L65.5631 44.8448C66.0966 44.9877 66.4132 45.5361 66.2702 46.0696C65.5796 48.6469 65.6888 52.0856 66.3425 55.4277C66.9962 58.7693 68.1631 61.8565 69.4555 63.7352C69.7524 64.1668 69.6659 64.7544 69.2572 65.0821L52.0328 78.8948C52.0249 78.901 52.017 78.9072 52.009 78.9132L50.7928 79.8297C50.547 80.015 50.2295 80.0767 49.9322 79.997C49.6348 79.9173 49.3908 79.7052 49.2705 79.4218L48.6755 78.02C48.6716 78.0108 48.6678 78.0015 48.6642 77.9921L40.654 57.4179C40.5751 57.2152 40.5667 57.0014 40.6177 56.8046L40.6219 56.789C40.6967 56.5184 40.8844 56.2816 41.1557 56.1523C43.2143 55.1715 45.7686 53.0813 48.0055 50.5143C50.2427 47.9468 52.0567 45.0235 52.7473 42.4461ZM54.3843 43.92C53.4459 46.6214 51.6061 49.4265 49.5133 51.8282C47.4373 54.2106 45.029 56.2912 42.8426 57.5266L49.5221 74.683L53.3652 63.1272C53.1351 62.9707 52.9098 62.7744 52.7126 62.5331C52.1871 61.8898 51.9194 60.9896 52.2108 59.902C52.5022 58.8144 53.1842 58.1687 53.961 57.8743C54.6791 57.6022 55.4089 57.6529 55.8855 57.7806C56.362 57.9083 57.019 58.2292 57.5048 58.8238C58.0303 59.4671 58.2981 60.3673 58.0067 61.4548C57.7152 62.5423 57.0333 63.188 56.2565 63.4824C55.965 63.5929 55.6716 63.6501 55.3941 63.6707L52.9444 75.6001L67.3075 64.082C66.0316 61.9188 64.9864 58.9129 64.3797 55.8116C63.7682 52.6853 63.5775 49.3361 64.1156 46.5275L54.3843 43.92ZM54.85 61.6445C55.3835 61.7874 55.9318 61.4708 56.0747 60.9374C56.2177 60.4039 55.9011 59.8556 55.3676 59.7126C54.8342 59.5697 54.2858 59.8863 54.1429 60.4197C53.9999 60.9532 54.3165 61.5015 54.85 61.6445Z" fill="#C0C0C0"/>
</g>
<g filter="url(#filter3_di)">
<mask id="mask2" mask-type="alpha" maskUnits="userSpaceOnUse" x="44" y="1" width="40" height="54">
<path d="M56.3385 1.99731L83.3845 9.24425L71.22 54.6428L44.174 47.3958L56.3385 1.99731Z" fill="#C4C4C4"/>
</mask>
<g mask="url(#mask2)">
<path d="M67.7538 44.3965C66.3244 49.7312 62.3246 51.224 57.9558 50.0534C52.6212 48.624 50.8696 45.5901 52.299 40.2554C50.6986 39.8266 49.7488 38.1816 50.1777 36.5812L57.9422 7.6034C58.514 5.46954 60.7073 4.20321 62.8412 4.77498L76.3642 8.39844C78.498 8.97021 79.7644 11.1636 79.1926 13.2974L71.428 42.2752C70.9992 43.8756 69.3542 44.8253 67.7538 44.3965Z" fill="#FB8C00"/>
<path d="M67.7538 44.3965C66.3244 49.7312 62.3246 51.224 57.9558 50.0534C52.6212 48.624 50.8696 45.5901 52.299 40.2554M67.7538 44.3965L52.299 40.2554M67.7538 44.3965C69.3542 44.8253 70.9992 43.8756 71.428 42.2752L79.1926 13.2974C79.7644 11.1636 78.498 8.97021 76.3642 8.39844L62.8412 4.77498C60.7073 4.20321 58.514 5.46954 57.9422 7.6034L50.1777 36.5812C49.7488 38.1816 50.6986 39.8266 52.299 40.2554" stroke="#E56800" stroke-width="2"/>
</g>
</g>
</g>
</g>
<rect width="108" height="108" fill="url(#paint2_radial)" fill-opacity="0.1"/>
</g>
<defs>
<filter id="filter0_i" x="43" y="77" width="78.5" height="3" filterUnits="userSpaceOnUse" color-interpolation-filters="sRGB">
<feFlood flood-opacity="0" result="BackgroundImageFix"/>
<feBlend mode="normal" in="SourceGraphic" in2="BackgroundImageFix" result="shape"/>
<feColorMatrix in="SourceAlpha" type="matrix" values="0 0 0 0 0 0 0 0 0 0 0 0 0 0 0 0 0 0 127 0" result="hardAlpha"/>
<feOffset dy="1"/>
<feComposite in2="hardAlpha" operator="arithmetic" k2="-1" k3="1"/>
<feColorMatrix type="matrix" values="0 0 0 0 0 0 0 0 0 0 0 0 0 0 0 0 0 0 0.2 0"/>
<feBlend mode="multiply" in2="shape" result="effect1_innerShadow"/>
</filter>
<filter id="filter1_dd" x="35.4436" y="3.63744" width="52.8866" height="88.2419" filterUnits="userSpaceOnUse" color-interpolation-filters="sRGB">
<feFlood flood-opacity="0" result="BackgroundImageFix"/>
<feColorMatrix in="SourceAlpha" type="matrix" values="0 0 0 0 0 0 0 0 0 0 0 0 0 0 0 0 0 0 127 0"/>
<feOffset dx="4" dy="4"/>
<feGaussianBlur stdDeviation="2"/>
<feColorMatrix type="matrix" values="0 0 0 0 0.192157 0 0 0 0 0.105882 0 0 0 0 0.572549 0 0 0 0.25 0"/>
<feBlend mode="multiply" in2="BackgroundImageFix" result="effect1_dropShadow"/>
<feColorMatrix in="SourceAlpha" type="matrix" values="0 0 0 0 0 0 0 0 0 0 0 0 0 0 0 0 0 0 127 0"/>
<feOffset dy="2"/>
<feColorMatrix type="matrix" values="0 0 0 0 0.192157 0 0 0 0 0.105882 0 0 0 0 0.572549 0 0 0 0.2 0"/>
<feBlend mode="multiply" in2="effect1_dropShadow" result="effect2_dropShadow"/>
<feBlend mode="normal" in="SourceGraphic" in2="effect2_dropShadow" result="shape"/>
</filter>
<filter id="filter2_i" x="35.4436" y="39.4096" width="38.8127" height="44.4697" filterUnits="userSpaceOnUse" color-interpolation-filters="sRGB">
<feFlood flood-opacity="0" result="BackgroundImageFix"/>
<feBlend mode="normal" in="SourceGraphic" in2="BackgroundImageFix" result="shape"/>
<feColorMatrix in="SourceAlpha" type="matrix" values="0 0 0 0 0 0 0 0 0 0 0 0 0 0 0 0 0 0 127 0" result="hardAlpha"/>
<feOffset dy="1"/>
<feComposite in2="hardAlpha" operator="arithmetic" k2="-1" k3="1"/>
<feColorMatrix type="matrix" values="0 0 0 0 1 0 0 0 0 1 0 0 0 0 1 0 0 0 0.4 0"/>
<feBlend mode="normal" in2="shape" result="effect1_innerShadow"/>
</filter>
<filter id="filter3_di" x="49.0744" y="3.63744" width="31.2557" height="48.79" filterUnits="userSpaceOnUse" color-interpolation-filters="sRGB">
<feFlood flood-opacity="0" result="BackgroundImageFix"/>
<feColorMatrix in="SourceAlpha" type="matrix" values="0 0 0 0 0 0 0 0 0 0 0 0 0 0 0 0 0 0 127 0"/>
<feOffset dy="1"/>
<feColorMatrix type="matrix" values="0 0 0 0 0 0 0 0 0 0 0 0 0 0 0 0 0 0 0.15 0"/>
<feBlend mode="normal" in2="BackgroundImageFix" result="effect1_dropShadow"/>
<feBlend mode="normal" in="SourceGraphic" in2="effect1_dropShadow" result="shape"/>
<feColorMatrix in="SourceAlpha" type="matrix" values="0 0 0 0 0 0 0 0 0 0 0 0 0 0 0 0 0 0 127 0" result="hardAlpha"/>
<feOffset dy="1"/>
<feComposite in2="hardAlpha" operator="arithmetic" k2="-1" k3="1"/>
<feColorMatrix type="matrix" values="0 0 0 0 1 0 0 0 0 1 0 0 0 0 1 0 0 0 0.2 0"/>
<feBlend mode="normal" in2="shape" result="effect2_innerShadow"/>
</filter>
<linearGradient id="paint0_linear" x1="54" y1="0" x2="54" y2="108" gradientUnits="userSpaceOnUse">
<stop stop-color="#C53FFB"/>
<stop offset="1" stop-color="#6E29FF"/>
</linearGradient>
<linearGradient id="paint1_linear" x1="54" y1="0" x2="54" y2="108" gradientUnits="userSpaceOnUse">
<stop stop-color="#C53FFB"/>
<stop offset="1" stop-color="#6E29FF"/>
</linearGradient>
<radialGradient id="paint2_radial" cx="0" cy="0" r="1" gradientUnits="userSpaceOnUse" gradientTransform="translate(20.5348 20.5348) rotate(45) scale(111.851)">
<stop stop-color="white"/>
<stop offset="0.441989" stop-color="white" stop-opacity="0.6"/>
<stop offset="1" stop-color="white" stop-opacity="0"/>
</radialGradient>
<clipPath id="clip0">
<rect width="108" height="108" fill="white"/>
</clipPath>
<clipPath id="clip1">
<rect width="108" height="108" fill="white"/>
</clipPath>
</defs>
</svg>
