<svg version="1" xmlns="http://www.w3.org/2000/svg" width="933.333" height="933.333"
     viewBox="0 0 700.000000 700.000000">
    <path d="M294 .5c0 .3-3.3 13-7.4 28.3-4.1 15.2-8.4 31.1-9.5 35.2-1.1 4.1-4.5 16.9-7.6 28.5-3.1 11.5-5.8 21.7-6.1 22.5-.2.8-1.5 5.8-2.8 11-5.1 19.5-.8 36.5 12.3 48.3l4.3 3.9-1 6.6c-1.6 11.1-.7 31.1 1.7 37.6 1 2.4-3.5 10.1-14.1 24.4-20.8 28.1-47.4 53-72.4 67.7-20.5 12.1-20.5 12-3.5 55 6.7 17 13.7 34.8 15.5 39.5 10.4 27 26 66.9 27.1 69.5.7 1.6 5.6 14.2 10.9 28 5.3 13.7 10.1 25.9 10.6 27 .5 1.1 2.5 6 4.5 11 2.1 4.9 4.4 10.3 5.3 11.8 3.4 5.7 12.6 9 18.7 6.7 2.6-1 13.6-8.6 19-13.2 1.1-.9 8.5-6.9 16.5-13.3 8-6.3 15.2-12.1 16-12.8.8-.6 5.8-4.6 11-8.7s9.7-7.7 10-8c.3-.3 7-5.7 15-12s14.7-11.7 15-12c.3-.3 9.3-7.5 20-16s20.4-16.3 21.5-17.2c2.2-1.9 27-21.6 33-26.3 16.9-13.2 18.1-17.6 9-33.2-3-5.2-5.5-9.6-5.5-9.8 0-.1-1.7-4.1-3.9-8.7-5.7-12.3-13.7-37.3-15.7-49.3-.3-1.7-.9-4.4-1.4-6-.5-1.7-1.2-5-1.5-7.5-.4-2.5-.9-5.2-1-6-.2-1.4-1.3-11.4-2.1-19-.2-1.9-.4-7.2-.5-11.7l-.2-8.2 5.6-6.3c6.4-7.3 13.6-18.6 16.7-26.3 1.2-3 2.5-5.4 2.9-5.3.3.1 2.5-.1 4.8-.5 11.5-1.9 24.6-11.9 30.2-22.9 3.1-6 5-12.7 30.7-108.8 5.2-19.5 11.1-41.3 13-48.4 2-7.2 3.8-13.7 4-14.5.2-.9 2.1-8.2 4.3-16.4l4-14.7H517l-.6 2.7c-.4 1.6-3.3 12.5-6.5 24.3s-10.1 37.7-15.4 57.5c-12.7 47.3-11.3 42.1-19.9 73.8-4.1 15.4-8.2 29-9.1 30.3-2.2 3.4-5.7 5.4-9.7 5.6-1.9.1-12.9-2.4-24.4-5.5-18.1-4.9-36.5-9.9-79.4-21.4-5.2-1.4-10.2-2.7-11-2.9-.8-.2-5.1-1.3-9.5-2.5-4.4-1.1-8.7-2.3-9.5-2.4-9.1-2.2-23.7-6.7-25.6-8-3.4-2.2-5.5-5.8-5.6-9.7-.1-1.8 1.8-10.2 4.1-18.7 2.4-8.4 4.4-16.2 4.6-17.2.2-1 1.1-4.2 1.9-7.1.9-2.9 3.6-13 6.1-22.3 2.5-9.4 5.9-22 7.5-28 1.7-6.1 5-18.7 7.5-28 2.5-9.4 4.8-17.8 5.1-18.8.5-1.6-.7-1.7-16.5-1.7-9.4 0-17.1.2-17.1.5zm21.5 190.8c1.1.3 7.4 2 14 3.7 11.4 2.9 38.6 10.2 50.5 13.5 3 .9 14.1 3.8 24.5 6.6 10.5 2.7 19.6 5.2 20.3 5.5 1.1.3.7 1.6-1.4 5.2-9 15.5-21.5 23.9-38.9 26-16.6 2-42.3-4.7-57.8-15-14.9-9.9-19.6-20.8-18.8-43.7.1-3.5.6-3.6 7.6-1.8zM304.6 261c8.6 6.6 20.4 12.5 32.9 16.5 9.3 3 13.5 4.1 25.7 6.3 4.9 1 25.6.8 29.8-.2 1.4-.4 4.2-.9 6.3-1.2l3.7-.7.1 3.9c0 2.2.2 5.2.4 6.9.2 1.6.7 5.5 1 8.5 3.2 27.7 13.3 64 24.4 87.5 2.8 5.9 5.1 11.1 5.1 11.5 0 .4-5.1 4.7-11.2 9.6-6.2 4.9-12.2 9.7-13.3 10.6-1.8 1.5-65.6 52.5-73.4 58.6-1.9 1.5-3.9 3.1-4.5 3.7-.9.9-13.2 10.6-17.5 13.9-1.1.9-1.2.3-.6-3.4 1.1-6.6 1.4-8 1.9-9.8.3-.9.8-3.3 1.1-5.2.4-1.9 3.4-17 6.9-33.4l6.2-29.9 5.3-1.4c13.1-3.3 24.7-12.9 30.2-25 9.3-19.9 2.5-43.9-15.9-56.5-12.5-8.6-30.3-9.9-44.7-3.2-5.4 2.6-6 3-13.1 10.1-5 5-6.8 7.7-9.2 13.9-6.6 17-3.2 34.7 9.2 48.2l4 4.4-13.3 40c-7.3 22-13.7 39.6-14.1 39.1-.4-.4-3.2-7.3-6.3-15.3-3.1-8-10.6-27.3-16.8-43-6.1-15.7-13-33.5-15.4-39.5-2.3-6.1-7.2-18.6-10.9-28-3.6-9.3-6.6-17.3-6.6-17.6 0-.4 1.7-1.8 3.8-3 22.5-13.6 58-48.4 77.2-75.8 2.4-3.4 4.4-6.1 4.6-6.1.2 0 3.3 2.3 7 5zm28.8 100c2.7 2.6 3.1 3.7 3.1 8.5s-.4 5.9-3.1 8.5c-9.6 9.7-25.4.9-21.5-11.9 2.9-9.8 14.2-12.5 21.5-5.1zM371.8 531.8c-.7.3-8.6 5.2-17.6 11-17.1 11.1-18.8 12.9-16.2 17.7.7 1.3 2.2 2.6 3.4 2.9 1.2.3 82.3.5 180.4.5H700v-32.4H536.6c-89.9-.1-164 .1-164.8.3z"/>
</svg>